<svg width="61" height="31" viewBox="0 0 61 31" fill="none" xmlns="http://www.w3.org/2000/svg">
<path d="M45.4798 0H15.5202C6.94863 0 0 6.93853 0 15.4976V15.5024C0 24.0615 6.94863 31 15.5202 31H45.4798C54.0514 31 61 24.0615 61 15.5024V15.4976C61 6.93853 54.0514 0 45.4798 0Z" fill="#F38A00"/>
<path d="M44.5 27C50.8513 27 56 21.8513 56 15.5C56 9.14873 50.8513 4 44.5 4C38.1487 4 33 9.14873 33 15.5C33 21.8513 38.1487 27 44.5 27Z" fill="white"/>
<path d="M16.4954 11C17.0857 10.9988 17.6705 11.1139 18.2164 11.3386C18.7622 11.5634 19.2585 11.8935 19.6768 12.3101C20.0951 12.7267 20.4272 13.2216 20.6543 13.7665C20.8813 14.3114 20.9988 14.8958 21 15.4861C21.0018 16.0778 20.8869 16.6641 20.6619 17.2114C20.4368 17.7586 20.1061 18.2562 19.6885 18.6754C19.271 19.0947 18.7748 19.4275 18.2285 19.6548C17.6822 19.8821 17.0964 19.9994 16.5046 20C15.3123 20 14.1687 19.5273 13.3243 18.6855C12.4799 17.8438 12.0037 16.7016 12 15.5093C11.9988 14.3154 12.4715 13.1698 13.3145 12.3243C14.1574 11.4788 15.3015 11.0025 16.4954 11ZM16.551 18.9109C17.1114 18.9148 17.6635 18.7756 18.155 18.5063C18.6465 18.237 19.0611 17.8467 19.3594 17.3723C19.7221 16.8473 19.9203 16.2262 19.9285 15.5882C19.9368 14.9501 19.7548 14.3241 19.4057 13.7899C19.1132 13.2936 18.6957 12.8826 18.1948 12.598C17.6939 12.3134 17.1271 12.1651 16.551 12.1679V18.9109Z" fill="white"/>
<path d="M21 19.735C21.0048 19.5936 21.0385 19.4566 21.0974 19.3393C21.1563 19.2219 21.238 19.1287 21.3337 19.07C21.4241 19.0085 21.5265 18.9868 21.6265 19.0078C21.7265 19.0288 21.8191 19.0914 21.8914 19.187C22.0742 19.421 22.2525 19.6673 22.4308 19.9075C22.8879 20.5233 23.345 21.1391 23.825 21.7919C23.8967 21.8764 23.9495 21.9861 23.9775 22.1089C24.0054 22.2316 24.0074 22.3624 23.9832 22.4865C23.9589 22.6107 23.9095 22.7233 23.8404 22.8116C23.7712 22.9 23.6851 22.9605 23.5918 22.9866C23.5099 23.009 23.425 23.0033 23.3452 22.9699C23.2653 22.9365 23.1929 22.8766 23.1347 22.7957C22.4902 21.9274 21.8457 21.0652 21.2057 20.1846C21.1235 20.0469 21.0544 19.8959 21 19.735Z" fill="white"/>
<path d="M11.9965 20.6104C11.955 20.7186 11.8974 20.8199 11.8256 20.9108C11.1879 21.5578 10.5472 22.2003 9.90335 22.8381C9.85579 22.8892 9.79822 22.9299 9.73422 22.9578C9.67023 22.9856 9.60118 23 9.53139 23C9.4616 23 9.39253 22.9856 9.32853 22.9578C9.26454 22.9299 9.20696 22.8892 9.1594 22.8381C9.10906 22.7906 9.06896 22.7332 9.04154 22.6697C9.01413 22.6061 9 22.5376 9 22.4683C9 22.3991 9.01413 22.3306 9.04154 22.267C9.06896 22.2034 9.10906 22.1461 9.1594 22.0986C9.80168 21.4469 10.4532 20.8045 11.1001 20.1574C11.172 20.0797 11.2671 20.0273 11.3712 20.0081C11.4753 19.9889 11.5829 20.004 11.6777 20.0511C11.7833 20.0984 11.8711 20.1781 11.9284 20.2787C11.9857 20.3792 12.0096 20.4954 11.9965 20.6104Z" fill="white"/>
<path d="M16.0016 22.9709V21.5763C15.9967 21.5021 16.006 21.4276 16.0289 21.3575C16.0518 21.2874 16.0879 21.2233 16.1348 21.1691C16.1817 21.115 16.2384 21.072 16.3014 21.0429C16.3644 21.0138 16.4322 20.9992 16.5006 21C16.5675 20.9993 16.6338 21.0134 16.6955 21.0413C16.7572 21.0692 16.8131 21.1105 16.8597 21.1625C16.9064 21.2146 16.9428 21.2763 16.9669 21.3441C16.9909 21.4119 17.0021 21.4843 16.9997 21.5569C16.9997 22.5254 16.9997 23.4939 16.9997 24.4286C17.0021 24.5031 16.9906 24.5774 16.9659 24.6469C16.9411 24.7165 16.9037 24.7799 16.8558 24.8333C16.8079 24.8867 16.7506 24.929 16.6873 24.9576C16.6239 24.9863 16.5559 25.0007 16.4873 25C16.419 24.997 16.3519 24.979 16.2901 24.9471C16.2284 24.9152 16.1732 24.8701 16.1278 24.8145C16.0825 24.7589 16.0479 24.6939 16.0262 24.6234C16.0045 24.5529 15.9962 24.4784 16.0016 24.4043V22.9709Z" fill="white"/>
<path d="M16.9976 8.00969C16.9976 8.49395 16.9976 8.93946 16.9976 9.40435C17.0045 9.47992 16.9966 9.55622 16.9746 9.6283C16.9526 9.70038 16.9168 9.76664 16.8697 9.82279C16.8225 9.87894 16.765 9.92373 16.7009 9.95425C16.6367 9.98478 16.5674 10.0004 16.4974 9.99999C16.4287 10.0002 16.3608 9.98503 16.2979 9.95533C16.235 9.92564 16.1784 9.8821 16.1318 9.82747C16.0852 9.77285 16.0496 9.70832 16.0272 9.63799C16.0048 9.56766 15.9961 9.49305 16.0016 9.41888C16.0016 8.47296 16.0016 7.52865 16.0016 6.58596C15.9968 6.51172 16.0059 6.43718 16.0285 6.3669C16.0511 6.29662 16.0867 6.23209 16.1331 6.17724C16.1795 6.12239 16.2358 6.07839 16.2984 6.04791C16.361 6.01744 16.4287 6.00114 16.4974 6.00001C16.5674 5.99964 16.6367 6.01522 16.7009 6.04575C16.765 6.07627 16.8225 6.12106 16.8697 6.17721C16.9168 6.23336 16.9526 6.29962 16.9746 6.3717C16.9966 6.44378 17.0045 6.52008 16.9976 6.59565C16.9976 7.06538 16.9976 7.53995 16.9976 8.00969Z" fill="white"/>
<path d="M23.9757 15.9976H22.6019C22.5259 16.0044 22.4492 15.9966 22.3767 15.9747C22.3042 15.9528 22.2375 15.9172 22.1809 15.8703C22.1242 15.8234 22.0788 15.7662 22.0477 15.7023C22.0166 15.6384 22.0003 15.5693 22 15.4993C21.9999 15.4311 22.015 15.3637 22.0444 15.3011C22.0738 15.2385 22.1169 15.1821 22.171 15.1354C22.2252 15.0887 22.2892 15.0527 22.3592 15.0296C22.4291 15.0065 22.5035 14.9967 22.5777 15.001H25.4417C25.5152 15.0004 25.5881 15.0132 25.6561 15.0387C25.7242 15.0642 25.7859 15.1019 25.8379 15.1495C25.8899 15.1971 25.931 15.2538 25.9588 15.3161C25.9866 15.3785 26.0006 15.4453 26 15.5126C25.9976 15.5807 25.9802 15.6475 25.9488 15.7092C25.9173 15.7709 25.8726 15.826 25.8172 15.8714C25.7618 15.9167 25.697 15.9513 25.6266 15.973C25.5562 15.9947 25.4818 16.0031 25.4078 15.9976H23.9757Z" fill="white"/>
<path d="M12 11.4448C11.9907 11.554 11.9532 11.6587 11.8912 11.7484C11.8293 11.8381 11.7451 11.9097 11.6471 11.9559C11.5517 11.9985 11.4459 12.0106 11.3435 11.9907C11.2412 11.9707 11.1473 11.9197 11.0742 11.8444C10.8268 11.5982 10.5839 11.3473 10.3364 11.0964L9.20438 9.94878C9.14608 9.90262 9.09792 9.84464 9.06299 9.77853C9.02805 9.71243 9.00714 9.63966 9.00153 9.56488C8.99592 9.4901 9.00575 9.41496 9.03043 9.34426C9.0551 9.27356 9.09406 9.20886 9.1448 9.1543C9.1984 9.1006 9.26272 9.05917 9.33345 9.03281C9.40417 9.00646 9.47965 8.99578 9.55479 9.0015C9.62993 9.00723 9.70298 9.02922 9.76903 9.066C9.83508 9.10277 9.8926 9.15348 9.93767 9.2147C10.5426 9.82334 11.1521 10.4366 11.7479 11.0731C11.8439 11.1882 11.9284 11.3127 12 11.4448Z" fill="white"/>
<path d="M24 9.53906C23.945 9.67333 23.8737 9.80019 23.7879 9.91677C23.1731 10.5541 22.5491 11.1898 21.9159 11.824C21.8692 11.8773 21.8122 11.9204 21.7485 11.9506C21.6847 11.9808 21.6155 11.9976 21.5451 11.9998C21.4747 12.0019 21.4046 11.9895 21.3391 11.9633C21.2737 11.9371 21.2142 11.8976 21.1643 11.8473C21.1125 11.7988 21.0712 11.74 21.0429 11.6746C21.0146 11.6092 21 11.5386 21 11.4672C21 11.3958 21.0146 11.3252 21.0429 11.2598C21.0712 11.1944 21.1125 11.1357 21.1643 11.0872C21.7791 10.4437 22.4093 9.8033 23.0548 9.16602C23.1249 9.08687 23.2181 9.03243 23.321 9.01062C23.4238 8.98881 23.5309 9.00078 23.6265 9.04478C23.7268 9.08578 23.8144 9.15329 23.8801 9.24024C23.9458 9.32719 23.9872 9.4304 24 9.53906Z" fill="white"/>
<path d="M9.00488 15.998H7.5966C7.52149 16.0042 7.44581 15.9961 7.37428 15.9743C7.30275 15.9525 7.23691 15.9174 7.18091 15.8713C7.1249 15.8252 7.07994 15.769 7.04881 15.7062C7.01769 15.6435 7.00109 15.5756 7.00005 15.5067C6.99905 15.4367 7.01417 15.3673 7.0444 15.303C7.07462 15.2386 7.11928 15.1808 7.17551 15.1332C7.23174 15.0857 7.29828 15.0494 7.37082 15.0268C7.44335 15.0042 7.52026 14.9957 7.5966 15.002C8.53545 15.002 9.47921 15.002 10.4181 15.002C10.493 14.9971 10.5682 15.0064 10.639 15.0293C10.7098 15.0523 10.7745 15.0884 10.8292 15.1355C10.8839 15.1825 10.9273 15.2394 10.9567 15.3025C10.9861 15.3656 11.0008 15.4336 11 15.5022C10.9995 15.5707 10.9836 15.6383 10.9534 15.7009C10.9232 15.7635 10.8792 15.8198 10.8242 15.8663C10.7692 15.9127 10.7043 15.9484 10.6336 15.9711C10.5629 15.9937 10.4879 16.0029 10.4132 15.998H9.00488Z" fill="white"/>
</svg>
