<svg width="61" height="31" viewBox="0 0 61 31" fill="none" xmlns="http://www.w3.org/2000/svg">
<g clip-path="url(#clip0_317_464)">
<path d="M15.5202 31L45.4798 31C54.0514 31 61 24.0615 61 15.5024V15.4976C61 6.93853 54.0514 -3.8147e-06 45.4798 -3.8147e-06L15.5202 -3.8147e-06C6.94864 -3.8147e-06 1.52588e-05 6.93853 1.52588e-05 15.4976V15.5024C1.52588e-05 24.0615 6.94864 31 15.5202 31Z" fill="#171717"/>
<path d="M16.7148 27.2464C23.1265 27.2464 28.3242 22.0563 28.3242 15.654C28.3242 9.25164 23.1265 4.06152 16.7148 4.06152C10.3031 4.06152 5.10547 9.25164 5.10547 15.654C5.10547 22.0563 10.3031 27.2464 16.7148 27.2464Z" fill="white"/>
<path d="M50.0497 22.1058C49.2132 22.2468 48.3571 22.2218 47.5304 22.032C46.7037 21.8423 45.9225 21.4916 45.2317 21C44.5408 20.5085 43.9539 19.8857 43.5043 19.1674C43.0548 18.449 42.7515 17.6492 42.6119 16.8137C42.4701 15.9778 42.4949 15.1221 42.6849 14.2958C42.8749 13.4695 43.2263 12.6887 43.7192 11.9983C44.212 11.3079 44.8364 10.7214 45.5567 10.2724C46.2769 9.82347 47.0789 9.5209 47.9165 9.38206C48.5588 9.27196 49.2143 9.26079 49.8601 9.34893C49.9597 9.36439 50.0617 9.34448 50.1482 9.29266C50.2347 9.24083 50.3003 9.16037 50.3336 9.06526C50.3668 8.97015 50.3656 8.86641 50.3302 8.77208C50.2948 8.67775 50.2274 8.5988 50.1397 8.54896C48.4457 7.56919 46.4617 7.21248 44.5318 7.54071C42.3309 7.91267 40.3676 9.14127 39.0727 10.9569C37.7779 12.7726 37.2572 15.027 37.625 17.2255C37.8077 18.3165 38.204 19.3607 38.7912 20.2986C39.3783 21.2365 40.1449 22.0496 41.047 22.6914C41.9491 23.3333 42.969 23.7913 44.0485 24.0393C45.128 24.2872 46.2458 24.3203 47.3381 24.1365C48.5265 23.9424 49.6585 23.4935 50.6564 22.8206C50.7362 22.763 50.7938 22.68 50.8197 22.5852C50.8457 22.4904 50.8384 22.3896 50.7991 22.2996C50.7598 22.2095 50.6909 22.1356 50.6037 22.09C50.5165 22.0444 50.4164 22.03 50.3199 22.049L50.0497 22.1058Z" fill="white"/>
</g>
<defs>
<clipPath id="clip0_317_464">
<rect width="61" height="31" fill="white"/>
</clipPath>
</defs>
</svg>
