<svg width="19" height="11" viewBox="0 0 19 11" fill="none" xmlns="http://www.w3.org/2000/svg">
<g clip-path="url(#clip0_685_5932)">
<path d="M18.7742 4.83697C17.765 3.44842 16.4588 2.29549 14.9479 1.45971C13.4371 0.623934 11.7585 0.125717 10.0309 0.000288732C8.10335 -0.0802337 6.18674 0.32396 4.46117 1.17488C2.7356 2.0258 1.25775 3.2955 0.166561 4.86462C0.0376512 5.05223 -0.03125 5.27366 -0.03125 5.50029C-0.03125 5.72693 0.0376512 5.94835 0.166561 6.13597C1.17024 7.53002 2.47513 8.68697 3.98711 9.52337C5.4991 10.3598 7.18047 10.8548 8.90993 10.9727C10.8352 11.0643 12.7519 10.6648 14.4749 9.81274C16.1979 8.96066 17.6691 7.68478 18.7462 6.10834C18.887 5.92673 18.9655 5.70569 18.9706 5.47716C18.9756 5.24863 18.9069 5.02444 18.7742 4.83697ZM9.49842 9.59074C8.37355 9.59077 7.29433 9.15195 6.49631 8.37008C5.69828 7.58821 5.24624 6.52676 5.23884 5.41738C5.26085 4.31764 5.71932 3.27027 6.51577 2.50028C7.31223 1.73028 8.38313 1.29907 9.49842 1.29929C10.0565 1.29927 10.609 1.40813 11.1243 1.61959C11.6395 1.83104 12.1072 2.14092 12.5005 2.53139C12.8938 2.92185 13.205 3.38519 13.416 3.89472C13.627 4.40425 13.7337 4.94992 13.73 5.50029C13.708 6.59271 13.2525 7.63304 12.4613 8.39785C11.6701 9.16267 10.6063 9.59096 9.49842 9.59074Z" fill="white"/>
<path d="M9.49972 8.9824C11.4498 8.9824 13.0307 7.42327 13.0307 5.49999C13.0307 3.57671 11.4498 2.01758 9.49972 2.01758C7.54962 2.01758 5.96875 3.57671 5.96875 5.49999C5.96875 7.42327 7.54962 8.9824 9.49972 8.9824Z" fill="white"/>
</g>
<defs>
<clipPath id="clip0_685_5932">
<rect width="19" height="11" fill="white"/>
</clipPath>
</defs>
</svg>
