<svg width="16" height="17" viewBox="0 0 16 17" fill="none" xmlns="http://www.w3.org/2000/svg">
<path d="M15.155 5.15962L4.39967 16.4211L0.715515 12.0711L11.4709 0.809624C11.9887 0.267455 12.679 -0.0237959 13.3899 -5.86143e-05C14.1008 0.0236783 14.7742 0.360458 15.2618 0.936197C15.5048 1.22094 15.6949 1.55624 15.8211 1.92285C15.9473 2.28946 16.0072 2.68017 15.9972 3.07256C15.9873 3.46496 15.9078 3.85131 15.7633 4.20946C15.6188 4.56761 15.4121 4.89051 15.155 5.15962Z" fill="white"/>
<path d="M0.240205 12.5547L0.00502908 16.1914C-0.000374613 16.2964 0.0137669 16.4016 0.046567 16.5003C0.079367 16.5989 0.130121 16.689 0.195658 16.7649C0.261195 16.8408 0.340108 16.9008 0.427459 16.9413C0.51481 16.9817 0.608723 17.0017 0.703329 16.9999H4.06589L0.240205 12.5547Z" fill="white"/>
</svg>
