<svg id="Layer_1" data-name="Layer 1" xmlns="http://www.w3.org/2000/svg" viewBox="0 0 26.54 26.33"><defs><style>.cls-1{fill:#fff;}</style></defs><path class="cls-1" d="M28.38,6.15H10.26a2,2,0,0,0-2,2v2.37H24.84a2,2,0,0,1,2,2V28.87a2.66,2.66,0,0,1,0,.28h1.57a2,2,0,0,0,2-2v-19A2,2,0,0,0,28.38,6.15Z" transform="translate(-3.84 -6.15)"/><path class="cls-1" d="M24,11.25H5.84a2,2,0,0,0-2,2V30.49a2,2,0,0,0,2,2H24a2,2,0,0,0,2-2V13.25A2,2,0,0,0,24,11.25ZM21.07,22.83a2.27,2.27,0,0,1-.33.66,1.62,1.62,0,0,1-.51.44,1.17,1.17,0,0,1-.6.16H16.9v2.67a1.49,1.49,0,0,1-.59,1.15,2.28,2.28,0,0,1-1.41.5,2.24,2.24,0,0,1-.77-.1,2.1,2.1,0,0,1-.65-.33,1.52,1.52,0,0,1-.43-.52,1.21,1.21,0,0,1-.16-.61V24.09H10.26a1.45,1.45,0,0,1-1.13-.59,2.37,2.37,0,0,1-.5-1.44,2.53,2.53,0,0,1,.1-.78,2.15,2.15,0,0,1,.33-.66,1.43,1.43,0,0,1,.51-.44,1.27,1.27,0,0,1,.6-.15h2.72V17.36a1.49,1.49,0,0,1,.59-1.15,2.29,2.29,0,0,1,1.41-.51,2.43,2.43,0,0,1,.77.11,1.82,1.82,0,0,1,.65.33,1.52,1.52,0,0,1,.44.51,1.31,1.31,0,0,1,.15.61V20h2.64a1.45,1.45,0,0,1,1.13.59,2.36,2.36,0,0,1,.5,1.43A2.83,2.83,0,0,1,21.07,22.83Z" transform="translate(-3.84 -6.15)"/></svg>