<svg width="15" height="20" viewBox="0 0 15 20" fill="none" xmlns="http://www.w3.org/2000/svg">
<g clip-path="url(#clip0_476_1346)">
<path d="M1.57617 6.51599H13.4244V17.9126C13.4244 18.1868 13.3739 18.4583 13.2758 18.7116C13.1776 18.965 13.0338 19.1951 12.8526 19.389C12.6713 19.5828 12.4561 19.7366 12.2192 19.8414C11.9824 19.9463 11.7286 20.0001 11.4723 20H3.52729C3.00982 20 2.51355 19.7801 2.14764 19.3886C1.78174 18.9971 1.57617 18.4662 1.57617 17.9126V6.51599Z" fill="white"/>
<path d="M13.9446 2.32068H1.05538C0.472511 2.32068 0 2.8262 0 3.4498V4.93893C0 5.56253 0.472511 6.06806 1.05538 6.06806H13.9446C14.5275 6.06806 15 5.56253 15 4.93893V3.4498C15 2.8262 14.5275 2.32068 13.9446 2.32068Z" fill="white"/>
<path d="M5.7204 1.16233e-05H9.27945C9.55834 1.16233e-05 9.82581 0.118541 10.023 0.329526C10.2202 0.54051 10.331 0.826667 10.331 1.12504V1.86961H4.66406V1.12504C4.66406 0.976871 4.69142 0.830158 4.74456 0.693328C4.79771 0.556499 4.87559 0.432248 4.97374 0.327712C5.0719 0.223176 5.18839 0.140414 5.31652 0.0841774C5.44465 0.0279409 5.58191 -0.000661889 5.7204 1.16233e-05Z" fill="white"/>
</g>
<defs>
<clipPath id="clip0_476_1346">
<rect width="15" height="20" fill="white"/>
</clipPath>
</defs>
</svg>
