<svg width="19" height="22" viewBox="0 0 19 22" fill="none" xmlns="http://www.w3.org/2000/svg">
<rect x="0.0117188" y="18.3457" width="18.931" height="3.27796" rx="1.63898" transform="rotate(0.190843 0.0117188 18.3457)" fill="white"/>
<rect x="18.9531" y="14.8301" width="6.71532" height="3.51471" rx="1.75735" transform="rotate(89.5867 18.9531 14.8301)" fill="white"/>
<rect x="3.51562" y="14.8447" width="6.71532" height="3.51471" rx="1.75735" transform="rotate(89.5867 3.51562 14.8447)" fill="white"/>
<path fill-rule="evenodd" clip-rule="evenodd" d="M10.8239 0.647047L15.2487 5.05838C15.8897 5.69747 15.8913 6.73521 15.2522 7.37624C14.6131 8.01728 13.5754 8.01885 12.9343 7.37977L11.1809 5.63166L11.1421 14.7908C11.1382 15.696 10.4013 16.4267 9.49615 16.4228C8.59097 16.419 7.8603 15.6821 7.86413 14.7769L7.90299 5.61079L6.10222 7.40609C5.46118 8.04518 4.42344 8.0436 3.78436 7.40257C3.14527 6.76153 3.14685 5.72379 3.78788 5.08471L8.09339 0.792281C8.16021 0.681673 8.24127 0.57725 8.33658 0.481649C8.89299 -0.076458 9.75159 -0.149853 10.3875 0.262262C10.4988 0.329718 10.6039 0.411623 10.7 0.507975C10.7444 0.552506 10.7857 0.598953 10.8239 0.647047Z" fill="white"/>
</svg>
