<svg width="30" height="30" viewBox="0 0 30 30" fill="none" xmlns="http://www.w3.org/2000/svg">
<circle cx="15" cy="15" r="15" fill="white"/>
<circle cx="10.3575" cy="10.3572" r="1.78571" fill="#A50034"/>
<path fill-rule="evenodd" clip-rule="evenodd" d="M15.7152 8.57135H14.2866V19.9999V21.4285H15.7152L18.5723 21.4285V19.9999H15.7152V8.57135Z" fill="#A50034"/>
<path fill-rule="evenodd" clip-rule="evenodd" d="M15.0012 2.14301C15.2408 2.14301 15.4788 2.14956 15.7152 2.1625V3.59352C15.4791 3.57896 15.241 3.57158 15.0012 3.57158C8.68936 3.57158 3.57261 8.68832 3.57261 15.0001C3.57261 21.312 8.68936 26.4287 15.0012 26.4287C21.0731 26.4287 26.0391 21.6935 26.4078 15.7144H18.5721V14.2858H27.8578V14.879C27.8581 14.9193 27.8583 14.9597 27.8583 15.0001C27.8583 15.0406 27.8581 15.081 27.8578 15.1213V15.7144H27.8388C27.4682 22.483 21.8623 27.8573 15.0012 27.8573C7.90038 27.8573 2.14404 22.101 2.14404 15.0001C2.14404 7.89934 7.90038 2.14301 15.0012 2.14301Z" fill="#A50034"/>
</svg>
