<svg width="15" height="16" viewBox="0 0 15 16" fill="none" xmlns="http://www.w3.org/2000/svg">
<g clip-path="url(#clip0_1_137)">
<path d="M0.000107077 8.60872C-0.0117158 7.37534 0.275116 6.15754 0.835942 5.06001C1.39677 3.96248 2.21481 3.01806 3.21973 2.30796C3.31873 2.22664 3.43336 2.16666 3.55648 2.13175C3.6796 2.09685 3.80856 2.08778 3.93533 2.1051C4.06209 2.12243 4.18394 2.16578 4.29328 2.23245C4.40261 2.29912 4.49709 2.38767 4.57082 2.4926C4.6442 2.5989 4.69537 2.71901 4.72125 2.8457C4.74712 2.97238 4.74717 3.10301 4.72138 3.22971C4.69559 3.35641 4.64451 3.47656 4.5712 3.58292C4.4979 3.68927 4.40389 3.77962 4.29485 3.84853C2.34583 5.31986 1.52368 7.31049 2.03537 9.66462C2.23069 10.7523 2.75663 11.7528 3.54101 12.5286C4.32539 13.3044 5.32979 13.8176 6.41636 13.9978C7.15652 14.1532 7.92047 14.1558 8.66165 14.0054C9.40284 13.8549 10.1057 13.5546 10.7276 13.1228C11.3494 12.6909 11.8771 12.1365 12.2785 11.4934C12.6799 10.8502 12.9467 10.1318 13.0626 9.38189C13.2456 8.34796 13.1302 7.28305 12.7298 6.31283C12.3295 5.34261 11.6609 4.50757 10.8031 3.90623C10.6464 3.80659 10.5232 3.662 10.4494 3.49121C10.3756 3.32043 10.3546 3.13132 10.3891 2.94842C10.4129 2.76967 10.4907 2.60251 10.612 2.46944C10.7333 2.33637 10.8923 2.24377 11.0676 2.2041C11.2037 2.16589 11.3468 2.16008 11.4855 2.18712C11.6242 2.21417 11.7548 2.27332 11.8667 2.35989C13.4328 3.45988 14.5079 5.1311 14.8621 7.01622C15.2433 8.97269 14.8345 11.001 13.7256 12.6549C12.6166 14.3089 10.8984 15.453 8.94894 15.8355C6.99946 16.2181 4.97839 15.8078 3.33035 14.6949C1.68231 13.582 0.542292 11.8576 0.161088 9.90119C0.0748477 9.42228 0.0403524 8.96068 0.000107077 8.60872Z" fill="white"/>
<path d="M8.44587 4.70249C8.44587 5.95456 8.44587 7.20086 8.44587 8.45294C8.44964 8.60803 8.41487 8.76164 8.34472 8.89988C8.27456 9.03813 8.17122 9.15668 8.04402 9.24484C7.91682 9.333 7.76975 9.388 7.61608 9.40487C7.4624 9.42175 7.30697 9.39997 7.16377 9.34151C6.9876 9.27375 6.8372 9.15196 6.73398 8.99346C6.63076 8.83497 6.57997 8.64785 6.58884 8.45871V0.998196C6.57512 0.750291 6.66008 0.507067 6.82505 0.322033C6.99002 0.136999 7.22147 0.0253166 7.46849 0.0115441C7.71551 -0.00222844 7.95786 0.0830405 8.14224 0.248597C8.32661 0.414154 8.4379 0.646437 8.45162 0.894342C8.45162 1.40787 8.45162 1.92716 8.45162 2.44645L8.44587 4.70249Z" fill="white"/>
</g>
<defs>
<clipPath id="clip0_1_137">
<rect width="15" height="16" fill="white"/>
</clipPath>
</defs>
</svg>
